<svg width="26" height="24" viewBox="0 0 26 24" fill="none" xmlns="http://www.w3.org/2000/svg">
<g clip-path="url(#clip0_937_1219)">
<path d="M18.9587 6.5H18.9695M7.58366 2H18.417C21.4085 2 23.8337 4.23858 23.8337 7V17C23.8337 19.7614 21.4085 22 18.417 22H7.58366C4.59212 22 2.16699 19.7614 2.16699 17V7C2.16699 4.23858 4.59212 2 7.58366 2ZM17.3337 11.37C17.4674 12.2022 17.3134 13.0522 16.8936 13.799C16.4738 14.5458 15.8096 15.1514 14.9954 15.5297C14.1813 15.9079 13.2586 16.0396 12.3588 15.9059C11.4589 15.7723 10.6276 15.3801 9.98307 14.7852C9.33857 14.1902 8.9137 13.4229 8.7689 12.5922C8.6241 11.7616 8.76673 10.9099 9.17651 10.1584C9.5863 9.40685 10.2424 8.79374 11.0514 8.40624C11.8604 8.01874 12.7812 7.87659 13.6828 8C14.6025 8.12588 15.4539 8.52146 16.1113 9.12831C16.7687 9.73515 17.1973 10.5211 17.3337 11.37Z" stroke="#1E1E1E" stroke-width="4" stroke-linecap="round" stroke-linejoin="round"/>
</g>
<defs>
<clipPath id="clip0_937_1219">
<rect width="26" height="24" fill="white"/>
</clipPath>
</defs>
</svg>
