<svg width="25" height="24" viewBox="0 0 25 24" fill="none" xmlns="http://www.w3.org/2000/svg">
<path d="M19.761 13.4154C19.4527 13.4154 19.157 13.5332 18.9391 13.7429C18.7211 13.9527 18.5986 14.2371 18.5986 14.5338V14.9588L16.8782 13.3035C16.2708 12.7237 15.4498 12.3983 14.5941 12.3983C13.7384 12.3983 12.9174 12.7237 12.3099 13.3035L11.4963 14.0864L8.61347 11.3127C7.99753 10.7486 7.17971 10.434 6.32933 10.434C5.47895 10.434 4.66113 10.7486 4.04519 11.3127L2.32482 12.968V6.70489C2.32482 6.40827 2.44729 6.1238 2.66529 5.91405C2.88328 5.70431 3.17895 5.58648 3.48724 5.58648H11.6241C11.9324 5.58648 12.2281 5.46865 12.4461 5.2589C12.6641 5.04916 12.7865 4.76469 12.7865 4.46807C12.7865 4.17145 12.6641 3.88697 12.4461 3.67723C12.2281 3.46749 11.9324 3.34966 11.6241 3.34966H3.48724C2.56236 3.34966 1.67537 3.70315 1.02139 4.33238C0.367404 4.96161 0 5.81503 0 6.70489V20.1258C0 21.0157 0.367404 21.8691 1.02139 22.4983C1.67537 23.1276 2.56236 23.4811 3.48724 23.4811H17.4362C18.3611 23.4811 19.248 23.1276 19.902 22.4983C20.556 21.8691 20.9234 21.0157 20.9234 20.1258V14.5338C20.9234 14.2371 20.8009 13.9527 20.583 13.7429C20.365 13.5332 20.0693 13.4154 19.761 13.4154ZM3.48724 21.2442C3.17895 21.2442 2.88328 21.1264 2.66529 20.9167C2.44729 20.7069 2.32482 20.4224 2.32482 20.1258V16.1331L5.69582 12.8897C5.86659 12.7331 6.09344 12.6458 6.32933 12.6458C6.56523 12.6458 6.79208 12.7331 6.96285 12.8897L10.6477 16.4351L15.6461 21.2442H3.48724ZM18.5986 20.1258C18.5969 20.3399 18.5235 20.5478 18.3894 20.7186L13.1469 15.6522L13.9606 14.8693C14.0439 14.7875 14.1434 14.7224 14.2532 14.6781C14.3629 14.6337 14.4808 14.6108 14.5999 14.6108C14.719 14.6108 14.8369 14.6337 14.9466 14.6781C15.0564 14.7224 15.1559 14.7875 15.2392 14.8693L18.5986 18.1239V20.1258ZM24.0735 3.674L20.5863 0.318762C20.4758 0.216941 20.3454 0.137126 20.2027 0.0838959C19.9197 -0.0279653 19.6023 -0.0279653 19.3193 0.0838959C19.1766 0.137126 19.0462 0.216941 18.9357 0.318762L15.4485 3.674C15.3401 3.77827 15.2541 3.90207 15.1954 4.03832C15.1368 4.17457 15.1066 4.32059 15.1066 4.46807C15.1066 4.7659 15.2296 5.05154 15.4485 5.26214C15.6673 5.47274 15.9642 5.59105 16.2738 5.59105C16.5833 5.59105 16.8802 5.47274 17.0991 5.26214L18.5986 3.8082V10.0601C18.5986 10.3567 18.7211 10.6412 18.9391 10.851C19.157 11.0607 19.4527 11.1785 19.761 11.1785C20.0693 11.1785 20.365 11.0607 20.583 10.851C20.8009 10.6412 20.9234 10.3567 20.9234 10.0601V3.8082L22.4229 5.26214C22.531 5.36697 22.6596 5.45017 22.8012 5.50695C22.9429 5.56373 23.0948 5.59296 23.2482 5.59296C23.4017 5.59296 23.5536 5.56373 23.6953 5.50695C23.8369 5.45017 23.9655 5.36697 24.0735 5.26214C24.1825 5.15817 24.269 5.03447 24.328 4.89818C24.387 4.76189 24.4174 4.61571 24.4174 4.46807C24.4174 4.32042 24.387 4.17424 24.328 4.03795C24.269 3.90166 24.1825 3.77797 24.0735 3.674Z" fill="white"/>
</svg>
