<svg width="70" height="49" viewBox="0 0 70 49" fill="none" xmlns="http://www.w3.org/2000/svg">
<path d="M52.868 31.1823C48.0026 31.1823 44.0445 35.1788 44.0445 40.0914C44.0445 45.004 48.0026 49.0005 52.868 49.0005C57.7343 49.0005 61.6916 45.004 61.6916 40.0914C61.6916 35.1788 57.7335 31.1823 52.868 31.1823ZM52.868 44.546C50.435 44.546 48.4563 42.548 48.4563 40.0914C48.4563 37.6348 50.435 35.6368 52.868 35.6368C55.3011 35.6368 57.2798 37.6348 57.2798 40.0914C57.2798 42.5482 55.3011 44.546 52.868 44.546ZM22.721 31.1823C17.8556 31.1823 13.8975 35.1788 13.8975 40.0914C13.8975 45.004 17.8556 49.0005 22.721 49.0005C27.5864 49.0005 31.5446 45.004 31.5446 40.0914C31.5446 35.1788 27.5864 31.1823 22.721 31.1823ZM22.721 44.546C20.288 44.546 18.3092 42.548 18.3092 40.0914C18.3092 37.6348 20.288 35.6368 22.721 35.6368C25.1534 35.6368 27.1328 37.6348 27.1328 40.0914C27.1328 42.5482 25.1541 44.546 22.721 44.546ZM58.81 5.6816C58.6262 5.31285 58.3445 5.00291 57.9964 4.78634C57.6483 4.56977 57.2475 4.45509 56.8386 4.45508H45.221V8.90964H55.4783L61.4849 20.9725L65.4276 18.9709L58.81 5.6816Z" fill="black"/>
<path d="M29.5589 37.9379H46.25V42.3925H29.5589V37.9379ZM16.1029 37.9379H8.45592C7.23748 37.9379 6.2501 38.935 6.2501 40.1651C6.2501 41.3954 7.23762 42.3924 8.45592 42.3924H16.103C17.3214 42.3924 18.3088 41.3953 18.3088 40.1651C18.3088 38.9349 17.3213 37.9379 16.1029 37.9379ZM69.5368 24.3218L65.1979 18.6794C64.9919 18.4111 64.7278 18.194 64.4259 18.0447C64.1239 17.8954 63.7922 17.8179 63.456 17.8181H47.4265V2.22721C47.4265 0.996957 46.439 0 45.2207 0H8.45592C7.23748 0 6.2501 0.997095 6.2501 2.22721C6.2501 3.45732 7.23762 4.45442 8.45592 4.45442H43.0147V20.0453C43.0147 21.2756 44.0022 22.2725 45.2205 22.2725H62.3757L65.5882 26.4508V37.9377H59.4852C58.2668 37.9377 57.2794 38.9348 57.2794 40.1649C57.2794 41.3951 58.2669 42.3921 59.4852 42.3921H67.794C69.0125 42.3921 69.9999 41.395 70 40.1649V25.6879C70 25.1934 69.8368 24.7123 69.5368 24.3218ZM15.9559 26.6531H5.80877C4.59033 26.6531 3.60295 27.6502 3.60295 28.8803C3.60295 30.1105 4.59047 31.1075 5.80877 31.1075H15.9558C17.1742 31.1075 18.1616 30.1104 18.1616 28.8803C18.1617 27.6502 17.1742 26.6531 15.9559 26.6531ZM21.0294 17.8924H2.20582C0.98752 17.8924 0 18.8895 0 20.1197C0 21.35 0.98752 22.3469 2.20582 22.3469H21.0294C22.2478 22.3469 23.2352 21.3498 23.2352 20.1197C23.2352 18.8896 22.2478 17.8924 21.0294 17.8924Z" fill="black"/>
<path d="M24.6319 9.13086H5.80836C4.58992 9.13086 3.60254 10.128 3.60254 11.3581C3.60254 12.5883 4.59006 13.5853 5.80836 13.5853H24.6319C25.8504 13.5853 26.8378 12.5882 26.8378 11.3581C26.8379 10.128 25.8504 9.13086 24.6319 9.13086Z" fill="black"/>
</svg>
