<svg width="60" height="62" viewBox="0 0 60 62" fill="none" xmlns="http://www.w3.org/2000/svg">
<path d="M55.583 35.9145C55.4121 35.6895 55.2071 35.4616 54.9991 35.2337L52.8515 37.2076L54.7884 35.003C53.9139 34.046 52.974 33.2485 51.9999 32.6304C51.9942 32.6247 51.9856 32.619 51.9771 32.6133C51.923 32.5734 51.8688 32.5335 51.8119 32.4965C51.7748 32.4709 51.735 32.4481 51.6979 32.4225C51.6707 32.4057 51.6406 32.394 51.6134 32.3772C52.8132 27.2389 53.4002 22.0512 53.162 17.842C52.8885 13.2363 49.9405 9.21161 45.6538 7.58807L28.0969 0.937276C27.4361 0.686625 26.7012 0.689474 26.0375 0.934428L8.435 7.5482C3.95746 9.20306 0.989528 13.353 0.872748 18.0926C0.585069 26.5179 3.4818 43.3486 12.4654 52.6426C16.5954 56.9151 21.466 59.0826 26.9462 59.0826C28.9765 59.0826 30.9336 58.7832 32.7909 58.1948C32.8713 58.2602 32.9171 58.3202 33.013 58.3848C35.8215 60.7175 39.3933 61.9993 43.1046 61.9993C47.0068 61.9993 50.7381 60.6008 53.575 58.0914C57.1154 55.0665 59.1463 50.6431 59.1463 45.9576C59.1463 43.4454 58.551 40.9503 57.4202 38.7315C56.8619 37.6463 56.2125 36.6579 55.583 35.9145ZM26.9462 53.2493C23.1095 53.2493 19.6488 51.6799 16.6581 48.5895C9.33792 41.0158 6.4298 26.3128 6.70323 18.2635C6.7602 15.8994 8.23562 13.843 10.4715 13.0169L27.0601 6.782L43.5888 13.0454C45.7279 13.8543 47.2005 15.8738 47.34 18.1809C47.5309 21.5676 47.0979 25.9055 46.1637 30.2065C43.2921 29.6548 40.2773 29.9754 37.5337 30.9876C37.4626 31.0133 37.3945 31.0432 37.324 31.0697C36.7078 31.3065 36.1104 31.5783 35.529 31.8864C35.3609 31.9744 35.1952 32.0623 35.0307 32.1561C34.5401 32.4388 34.0715 32.7507 33.6156 33.0836C33.4433 33.2088 33.2653 33.3231 33.0985 33.4555C32.5125 33.9225 31.9533 34.4213 31.4465 34.9717L31.0021 35.4502C28.4615 38.3242 27.0629 42.0554 27.0629 45.9576C27.0629 47.8204 27.3677 49.5921 28.02 51.3637C28.1054 51.6144 28.1966 51.8565 28.3076 52.0872C28.4529 52.4432 28.6096 52.7964 28.7805 53.1354C28.1852 53.2123 27.5756 53.2493 26.9462 53.2493ZM49.7497 53.6908C46.1893 56.8296 40.2421 56.9008 36.6304 53.8047C36.5592 53.7449 36.488 53.6879 36.4111 53.6338C36.4111 53.6338 36.4082 53.6338 36.4082 53.631C36.1604 53.4059 35.9354 53.1838 35.5423 52.7622C35.1379 52.3578 34.8445 51.9818 34.5227 51.4235C34.1638 50.8709 33.8903 50.3526 33.6909 49.8342C33.6397 49.7003 33.6197 49.6291 33.5485 49.5038C33.54 49.4753 33.4545 49.2332 33.446 49.2047C33.0814 48.2192 32.8963 47.1283 32.8963 45.9576C32.8963 43.4796 33.7764 41.1212 35.249 39.4435L35.6534 39.0106C37.9287 36.5418 41.3613 35.4431 44.5959 35.8919C45.4566 36.0124 46.3079 36.2185 47.1179 36.5667C47.1189 36.5671 47.12 36.5669 47.1211 36.5673C47.6375 36.7912 48.1071 37.0618 48.579 37.3529C48.5876 37.3586 48.5961 37.3671 48.6047 37.3728C48.6759 37.4269 48.7499 37.4782 48.8269 37.5238C49.3851 37.8713 49.9462 38.3498 50.4504 38.8995L50.7039 39.1815C50.7836 39.2669 50.8634 39.3495 51.0229 39.5518C51.4672 40.0787 51.8745 40.7025 52.2306 41.3918C52.937 42.7818 53.3129 44.3626 53.3129 45.9576C53.3129 48.9369 52.0283 51.7425 49.7497 53.6908Z" fill="black"/>
<path d="M45.3232 41.4287L41.5521 45.1999L40.6976 44.3454C39.5583 43.2061 37.7126 43.2061 36.5732 44.3454C35.4339 45.4847 35.4339 47.3304 36.5732 48.4697L39.4899 51.3864C40.0596 51.9561 40.8058 52.2409 41.5521 52.2409C42.2983 52.2409 43.0446 51.9561 43.6143 51.3864L49.4476 45.5531C50.5869 44.4137 50.5869 42.568 49.4476 41.4287C48.3083 40.2894 46.4626 40.2894 45.3232 41.4287Z" fill="black"/>
</svg>
