<svg width="84" height="83" viewBox="0 0 84 83" fill="none" xmlns="http://www.w3.org/2000/svg">
<path d="M82.8279 45.0309L77.7729 38.4047C77.5001 38.0472 77.111 37.7962 76.6729 37.6949C76.2347 37.5935 75.775 37.6483 75.3729 37.8497L66.1217 42.4734H61.5504V40.3622C61.5494 39.8496 61.3451 39.3584 60.9823 38.9964C60.6196 38.6343 60.128 38.4309 59.6154 38.4309H49.3967L44.9942 34.9209C44.6536 34.6485 44.2303 34.5003 43.7942 34.5009H32.0079C31.7466 34.5007 31.4879 34.5534 31.2475 34.6559C31.0071 34.7584 30.79 34.9085 30.6092 35.0972L15.5229 50.9222L12.2454 47.6447C11.8767 47.2941 11.3873 47.0986 10.8785 47.0986C10.3697 47.0986 9.8804 47.2941 9.51166 47.6447L1.33291 55.8234C0.970657 56.1854 0.766978 56.6764 0.76666 57.1884V81.0534C0.76468 81.3083 0.813172 81.5611 0.909339 81.7971C1.00551 82.0331 1.14745 82.2478 1.32698 82.4287C1.50651 82.6097 1.72008 82.7533 1.95537 82.8512C2.19066 82.9492 2.44303 82.9997 2.69791 82.9997H26.5629C26.8165 82.9999 27.0677 82.95 27.302 82.8529C27.5362 82.7557 27.7489 82.6131 27.9279 82.4334L36.1067 74.2547C36.2863 74.0756 36.4288 73.8629 36.526 73.6286C36.6232 73.3944 36.6733 73.1433 36.6733 72.8897C36.6733 72.6361 36.6232 72.3849 36.526 72.1507C36.4288 71.9165 36.2863 71.7037 36.1067 71.5247L32.5292 67.9434L35.4279 65.3184H56.8029C57.2049 65.3212 57.5979 65.1993 57.9279 64.9697L82.4117 47.7872C82.6244 47.6372 82.8047 47.4459 82.942 47.2247C83.0792 47.0036 83.1705 46.757 83.2104 46.4998C83.2503 46.2426 83.238 45.98 83.1742 45.7276C83.1104 45.4752 82.9965 45.2383 82.8392 45.0309H82.8279ZM25.7604 79.1222H4.62916V57.9909L10.8692 51.7434L32.0079 72.8747L25.7604 79.1222ZM56.1992 61.4522H34.6854C34.2079 61.4519 33.7471 61.6282 33.3917 61.9472L29.7917 65.1909L18.2567 53.6559L32.8367 38.3747H43.1192L47.5329 41.8884C47.8743 42.1593 48.2971 42.3073 48.7329 42.3084H57.6954V45.5522L54.4067 47.8772H40.9742C40.462 47.8772 39.9707 48.0807 39.6086 48.4428C39.2464 48.805 39.0429 49.2962 39.0429 49.8084C39.0429 50.3206 39.2464 50.8119 39.6086 51.174C39.9707 51.5362 40.462 51.7397 40.9742 51.7397H55.0104C55.4128 51.7413 55.8059 51.6182 56.1354 51.3872L60.7442 48.1247C60.996 47.9454 61.2015 47.7086 61.3437 47.4341C61.4859 47.1596 61.5606 46.8551 61.5617 46.5459V46.3472C66.4367 46.2872 66.7442 46.4972 67.4567 46.1447L75.6804 42.0197L78.5454 45.7697L56.1992 61.4522ZM58.3292 31.8872C58.6837 32.2035 59.1422 32.3782 59.6173 32.3782C60.0924 32.3782 60.5509 32.2035 60.9054 31.8872C61.3929 31.4484 72.9054 21.1209 75.6054 17.6372C76.5287 16.4247 77.1647 15.0184 77.4654 13.5244C77.7662 12.0303 77.7239 10.4875 77.3417 9.01219C76.9126 7.32829 76.1073 5.76363 74.9862 4.43596C73.865 3.1083 72.4574 2.05222 70.8692 1.34719C68.9661 0.594523 66.8831 0.420777 64.8816 0.847757C62.8801 1.27474 61.0494 2.28342 59.6192 3.74719C58.1898 2.28215 56.359 1.27259 54.3572 0.845543C52.3554 0.418493 50.272 0.593028 48.3692 1.34719C46.7819 2.05206 45.3751 3.10769 44.2547 4.43469C43.1342 5.76168 42.3293 7.32547 41.9004 9.00844C41.5196 10.4839 41.478 12.0264 41.7787 13.5202C42.0794 15.014 42.7146 16.4203 43.6367 17.6334C46.3142 21.1247 57.8379 31.4484 58.3292 31.8872ZM45.6429 9.93469C45.9337 8.81683 46.4742 7.77946 47.2238 6.90064C47.9733 6.02182 48.9124 5.32443 49.9704 4.86094C50.624 4.55433 51.3372 4.39557 52.0592 4.39594C54.4327 4.67369 56.6061 5.86056 58.1229 7.70719C58.3063 7.92678 58.5358 8.1034 58.7949 8.22458C59.0541 8.34575 59.3368 8.40852 59.6229 8.40844C59.9093 8.41034 60.1926 8.34839 60.452 8.22709C60.7115 8.10579 60.9407 7.92818 61.1229 7.70719C61.2842 7.51594 65.1467 2.95969 69.2792 4.86094C70.3374 5.32397 71.2768 6.02121 72.0264 6.9001C72.7761 7.77899 73.3164 8.8166 73.6067 9.93469C73.8474 10.8457 73.8786 11.7994 73.6981 12.7243C73.5175 13.6491 73.1298 14.5211 72.5642 15.2747C68.4656 19.6819 64.145 23.8774 59.6192 27.8447C55.0983 23.8772 50.7827 19.6817 46.6892 15.2747C46.1221 14.5218 45.7333 13.65 45.5521 12.725C45.3708 11.8 45.4019 10.8459 45.6429 9.93469Z" fill="black"/>
</svg>
